<svg width="56" height="18" viewBox="0 0 56 18" fill="none" xmlns="http://www.w3.org/2000/svg">
<path d="M31.7045 9.62519C31.7045 14.601 28.8751 17.7016 24.3762 17.7016C19.8664 17.7016 17.0477 14.601 17.0477 9.62519C17.0477 4.64939 19.8664 1.5379 24.3762 1.5379C28.8751 1.5379 31.7045 4.64919 31.7045 9.62519ZM19.5304 9.62519C19.5304 13.2677 21.4058 15.5658 24.3762 15.5658C27.3466 15.5658 29.2111 13.2677 29.2111 9.62519C29.2111 5.97169 27.3465 3.6734 24.3762 3.6734C21.4059 3.6734 19.5304 5.97169 19.5304 9.62519ZM33.6226 6.0367H35.8558V7.9448H35.91C36.5279 6.644 37.7422 5.84159 39.4985 5.84159C42.0134 5.84159 43.4554 7.4461 43.4554 10.0586V17.4414H41.1028V10.5141C41.1028 8.80129 40.3007 7.858 38.6745 7.858C37.0268 7.858 35.9645 9.0288 35.9645 10.796V17.4413H33.6227L33.6226 6.0367ZM55.49 14.0915C55.1649 16.1729 53.1917 17.658 50.5792 17.658C47.2293 17.658 45.2023 15.3926 45.2023 11.793C45.2023 8.21569 47.262 5.83069 50.4818 5.83069C53.6472 5.83069 55.6201 8.06389 55.6201 11.522V12.3246H47.5656V12.4655C47.5656 14.4491 48.7579 15.761 50.6334 15.761C51.9669 15.761 52.9534 15.0889 53.2677 14.0915H55.49ZM47.5762 10.6873H53.2785C53.2243 8.9422 52.1186 7.71709 50.4817 7.71709C48.8448 7.71709 47.6956 8.9638 47.5762 10.6873ZM10.8955 4.7158C9.4998 4.6125 8.3158 5.49539 7.6551 5.49539C6.9849 5.49539 5.9515 4.73809 4.8558 4.75879C3.4171 4.77989 2.0911 5.596 1.3492 6.8841C-0.1451 9.4779 0.9677 13.3214 2.4233 15.4261C3.1353 16.4546 3.9845 17.6135 5.0999 17.5713C6.1735 17.529 6.5797 16.8769 7.8774 16.8769C9.1743 16.8769 9.5403 17.5713 10.6755 17.5505C11.8311 17.529 12.5632 16.5007 13.27 15.4666C14.0878 14.2729 14.424 13.117 14.4439 13.0559C14.4183 13.0462 12.1913 12.1918 12.1691 9.62599C12.149 7.48089 13.92 6.44979 14.0005 6.40009C12.9952 4.91949 11.4425 4.7563 10.8955 4.7158ZM10.0343 3.3264C10.6271 2.61 11.0259 1.6123 10.916 0.619995C10.0629 0.653795 9.0311 1.18829 8.4192 1.90419C7.8712 2.53839 7.39 3.55409 7.5207 4.52619C8.4716 4.59969 9.4421 4.0432 10.0343 3.3264Z" fill="#F5F5F7"/>
</svg>
