<svg width="29" height="29" viewBox="0 0 29 29" fill="none" xmlns="http://www.w3.org/2000/svg">
<path d="M28.631 22.3477V26.0063C28.631 26.8277 28.571 27.4547 28.0783 27.9478C27.6009 28.4257 27.033 28.5 26.1373 28.5H22.4783C21.777 28.5 21.433 28.3656 20.8803 27.813L1.31802 8.2503C0.78062 7.7276 0.63102 7.3841 0.63102 6.6523V2.9937C0.63102 2.1723 0.69102 1.5453 1.18372 1.0522C1.66202 0.5743 2.22902 0.5 3.12562 0.5H6.79892C7.50022 0.5 7.84422 0.6344 8.39692 1.187L27.944 20.7497C28.4814 21.2724 28.631 21.6159 28.631 22.3477ZM13.0411 28.0664C13.1602 28.1112 13.2202 28.2008 13.2202 28.2903C13.2202 28.4099 13.1154 28.4995 12.9515 28.4995H3.12552C2.22892 28.4995 1.66192 28.4252 1.18362 27.9473C0.69102 27.4542 0.63102 26.8272 0.63102 26.0058V16.1798C0.63102 16.0154 0.73582 15.9259 0.84062 15.9259C0.94452 15.9259 1.01972 15.9707 1.07882 16.0903C3.96132 21.7499 7.39642 25.1697 13.0411 28.0664ZM16.2066 0.9331C16.0875 0.8883 16.0427 0.7987 16.0427 0.7092C16.0427 0.5896 16.1323 0.5 16.2962 0.5H26.1222C27.0188 0.5 27.5858 0.5743 28.0641 1.0522C28.5567 1.5453 28.6158 2.1723 28.6158 2.9937V12.8197C28.6158 12.9841 28.5262 13.0736 28.4071 13.0736C28.3175 13.0736 28.2432 13.0288 28.1832 12.9092C25.2864 7.2496 21.8666 3.8298 16.2066 0.9331Z" fill="#F5F5F7"/>
</svg>
