<svg width="46" height="18" viewBox="0 0 46 18" fill="none" xmlns="http://www.w3.org/2000/svg">
<path d="M9.9432 3.2699C10.5785 2.5118 10.894 1.5364 10.8232 0.549896C9.8499 0.642296 8.9503 1.1083 8.3132 1.8499C7.6753 2.564 7.351 3.5044 7.4132 4.4599C8.396 4.4798 9.3317 4.0396 9.9432 3.2699ZM10.7632 4.6399C9.3632 4.5599 8.1832 5.4299 7.5132 5.4299C6.8432 5.4299 5.8232 4.6799 4.7232 4.6999C3.2612 4.7384 1.9291 5.549 1.2232 6.8299C-0.2768 9.40989 0.8232 13.2499 2.2832 15.3499C2.9932 16.3499 3.8432 17.5399 4.9732 17.4999C6.1032 17.4599 6.4532 16.8099 7.7432 16.8099C9.0332 16.8099 9.4132 17.4999 10.5332 17.4799C11.6532 17.4599 12.4332 16.4799 13.1332 15.3999C13.6372 14.6607 14.0313 13.8523 14.3032 12.9999C12.933 12.4029 12.0432 11.0545 12.0332 9.55989C12.0514 8.24129 12.7415 7.0233 13.8632 6.3299C13.1478 5.3164 12.0027 4.6921 10.7632 4.6399ZM19.6932 2.6399V5.46989H21.9732V7.3399H19.6932V14.0399C19.6932 15.0399 20.1432 15.5499 21.1432 15.5499C21.4174 15.5446 21.6911 15.5246 21.9632 15.4899V17.3699C21.5169 17.442 21.0652 17.4755 20.6132 17.4699C18.2532 17.4699 17.3432 16.5599 17.3432 14.2799V7.3799H15.5532V5.5099H17.2932V2.6399H19.6932ZM29.9432 17.3699H27.4432L23.2432 5.5099H25.7332L28.6832 15.0399H28.7432L31.6932 5.5099H34.1332L29.9432 17.3699ZM40.9232 17.3699H38.7632V12.5099H34.1232V10.3699H38.7532V5.5099H40.9132V10.3699H45.5532V12.5099H40.9232V17.3699Z" fill="#F5F5F7"/>
</svg>
