<svg width="35" height="34" viewBox="0 0 35 34" fill="none" xmlns="http://www.w3.org/2000/svg">
<path d="M34.73 17C34.73 20.3623 33.733 23.6491 31.865 26.4447C29.997 29.2403 27.342 31.4193 24.2357 32.706C21.1293 33.9926 17.7112 34.3293 14.4135 33.6734C11.1158 33.0174 8.08672 31.3983 5.70923 29.0208C3.33173 26.6433 1.71264 23.6142 1.05669 20.3165C0.400743 17.0189 0.7374 13.6007 2.02409 10.4944C3.31078 7.38804 5.48971 4.733 8.28535 2.86502C11.081 0.997033 14.3678 0 17.73 0C17.7829 0 17.8338 0.00740024 17.8865 0.00790024C18.3955 0.0476498 18.8693 0.283134 19.2082 0.664869C19.5472 1.0466 19.725 1.54487 19.7043 2.05497C19.6836 2.56506 19.466 3.04727 19.0971 3.40026C18.7283 3.75325 18.2371 3.94955 17.7265 3.9479V3.95C14.3411 3.93008 11.0787 5.21847 8.62046 7.54627C6.16219 9.87406 4.69795 13.0614 4.53339 16.4429C4.36882 19.8244 5.51664 23.1388 7.73727 25.6943C9.95789 28.2498 13.0797 29.8489 16.4511 30.1578C19.8225 30.4667 23.1829 29.4616 25.831 27.3521C28.479 25.2427 30.2101 22.1921 30.6627 18.837C31.1154 15.4819 30.2548 12.0816 28.2605 9.34579C26.2661 6.61003 23.2923 4.75023 19.9595 4.1546C20.4655 3.64095 20.7776 2.96773 20.8427 2.2497C20.9078 1.53168 20.7219 0.813289 20.3166 0.216999C24.3275 0.832113 27.9858 2.86253 30.6295 5.9409C33.2732 9.01926 34.7278 12.9422 34.73 17ZM25.782 17C25.782 18.5925 25.3098 20.1493 24.425 21.4734C23.5403 22.7976 22.2827 23.8296 20.8114 24.4391C19.3401 25.0485 17.7211 25.208 16.1592 24.8973C14.5972 24.5866 13.1625 23.8197 12.0364 22.6936C10.9103 21.5675 10.1434 20.1328 9.83276 18.5709C9.52207 17.0089 9.68153 15.3899 10.291 13.9186C10.9004 12.4473 11.9324 11.1898 13.2566 10.305C14.5807 9.42024 16.1375 8.948 17.73 8.948L17.7573 8.9494C18.2647 8.94048 18.7479 8.73143 19.1018 8.3678C19.4556 8.00416 19.6514 7.51542 19.6465 7.00805C19.6417 6.50068 19.4364 6.0158 19.0756 5.65906C18.7148 5.30232 18.2276 5.10263 17.7202 5.1035V5.1005C14.6706 5.09656 11.7353 6.26115 9.51787 8.35482C7.30044 10.4485 5.9694 13.3121 5.7984 16.357C5.6274 19.4019 6.62943 22.3966 8.59849 24.7254C10.5675 27.0541 13.354 28.5401 16.3849 28.8776C19.4158 29.2152 22.4609 28.3787 24.8941 26.5402C27.3272 24.7016 28.9636 22.0008 29.4667 18.9929C29.9697 15.985 29.3013 12.8987 27.5989 10.3685C25.8964 7.83824 23.2892 6.05641 20.3134 5.3893C20.6964 5.98493 20.8594 6.69553 20.7745 7.39852C20.6896 8.10152 20.3619 8.75283 19.8481 9.2401C21.5503 9.70559 23.0527 10.7169 24.1246 12.1187C25.1966 13.5205 25.7788 15.2353 25.782 17ZM17.7163 14.0994V14.0981C18.2419 14.0977 18.7462 13.8904 19.1201 13.5211C19.494 13.1517 19.7074 12.65 19.7142 12.1245C19.721 11.5989 19.5205 11.0919 19.1563 10.713C18.792 10.3341 18.2932 10.1139 17.7678 10.1C17.7551 10.1 17.7428 10.0981 17.73 10.0981C16.0242 10.0958 14.3778 10.7244 13.1076 11.863C11.8373 13.0015 11.033 14.5696 10.8494 16.2655C10.6658 17.9614 11.1158 19.6654 12.1129 21.0494C13.11 22.4335 14.5838 23.3999 16.2506 23.7627C17.9173 24.1256 19.6594 23.8592 21.1416 23.0149C22.6238 22.1705 23.7414 20.8079 24.2794 19.1891C24.8173 17.5703 24.7376 15.8098 24.0556 14.2462C23.3736 12.6827 22.1375 11.4266 20.585 10.7196L20.5234 10.6919C20.7472 11.1264 20.8655 11.6075 20.8687 12.0963C20.8685 12.611 20.7422 13.1178 20.5009 13.5724C20.2595 14.027 19.9105 14.4155 19.4843 14.7041C20.0251 15.1228 20.3996 15.7198 20.5414 16.3888C20.6832 17.0578 20.583 17.7555 20.2586 18.3575C19.9342 18.9596 19.4067 19.427 18.77 19.6765C18.1333 19.9261 17.4287 19.9416 16.7816 19.7203C16.1345 19.499 15.5869 19.0553 15.2363 18.4681C14.8858 17.881 14.7549 17.1884 14.8671 16.5138C14.9793 15.8392 15.3272 15.2263 15.849 14.7842C16.3708 14.3421 17.0325 14.0993 17.7163 14.0994Z" fill="#F5F5F7"/>
</svg>
