<svg width="33" height="33" viewBox="0 0 33 33" fill="none" xmlns="http://www.w3.org/2000/svg">
<path d="M26.0729 0.5H7.78709C4.01569 0.5 0.929993 3.5857 0.929993 7.3571V25.6428C0.929993 29.4143 4.01569 32.5 7.78709 32.5H26.0728C29.8443 32.5 32.93 29.4143 32.93 25.6429V7.3571C32.93 3.5857 29.8443 0.5 26.0729 0.5ZM23.7393 22.1593C23.6619 22.5006 23.5208 22.8216 23.3031 23.1108C23.0862 23.3991 22.8081 23.6354 22.4839 23.8125C22.1558 23.992 21.8115 24.0942 21.444 24.1628C20.7541 24.2916 20.2819 24.3207 19.8384 24.2381C19.4105 24.1584 19.0479 23.9762 18.758 23.73C18.3284 23.365 18.0605 22.8721 18.002 22.3568C17.9335 21.7531 18.1505 21.1081 18.64 20.6329C18.887 20.3931 19.1973 20.2034 19.6114 20.0546C20.0448 19.8988 20.5231 19.8059 21.2583 19.6685C21.452 19.6324 21.6456 19.5962 21.8394 19.56C22.0941 19.5125 22.3125 19.4521 22.4886 19.2528C22.6661 19.052 22.6688 18.8113 22.6688 18.569L22.6689 12.4571C22.6689 11.9897 22.4426 11.8622 21.9608 11.948C21.6163 12.0102 14.2189 13.3921 14.2189 13.3921C13.8016 13.4854 13.655 13.6118 13.655 14.0913L13.6552 23.0468C13.6552 23.3979 13.6354 23.7095 13.5556 24.0612C13.4782 24.4026 13.3371 24.7236 13.1194 25.0127C12.9025 25.301 12.6243 25.5372 12.3002 25.7144C11.9721 25.8939 11.6278 26.0012 11.2603 26.0698C10.5703 26.1987 10.0982 26.2278 9.65459 26.1451C9.22679 26.0654 8.86409 25.8781 8.57429 25.6319C8.14469 25.2669 7.89439 24.774 7.83589 24.2587C7.76729 23.655 7.96679 23.01 8.45639 22.5348C8.70329 22.2951 9.01349 22.1053 9.42769 21.9565C9.86119 21.8007 10.3395 21.7078 11.0746 21.5704C11.2683 21.5343 11.462 21.4981 11.6557 21.4619C11.9104 21.4143 12.1289 21.3539 12.3049 21.1546C12.481 20.9552 12.5013 20.7163 12.5013 20.4755C12.5013 18.5805 12.5013 10.162 12.5013 10.162C12.5013 10.023 12.5143 9.9305 12.522 9.884C12.5575 9.6669 12.6516 9.4808 12.8213 9.3488C12.9623 9.2391 13.1438 9.1635 13.3761 9.1178L13.3795 9.1171L22.2787 7.4541C22.3558 7.4395 22.9991 7.3337 23.0714 7.3279C23.5524 7.2894 23.8225 7.5819 23.8225 8.0568L23.8228 21.1402C23.8229 21.4913 23.819 21.8075 23.7393 22.1593Z" fill="#F5F5F7"/>
</svg>
