<svg width="33" height="34" viewBox="0 0 33 34" fill="none" xmlns="http://www.w3.org/2000/svg">
<path d="M16.5225 0C25.2207 0 32.2711 7.0504 32.2711 15.7486C32.2711 22.5393 27.9674 28.3382 21.9251 30.5206L22.2297 28.0484C26.8991 25.9271 30.1193 21.2271 30.1193 15.718C30.1193 8.1797 24.0761 2.1518 16.5225 2.1518C8.98419 2.1518 2.94099 8.195 2.94099 15.7486C2.94099 21.2424 6.16119 25.9424 10.8153 28.0637L11.1361 30.5206C5.09289 28.3229 0.789093 22.5241 0.789093 15.7181C0.789093 7.0199 7.82429 0 16.5225 0ZM16.5225 5.204C22.306 5.204 27.0671 9.9345 27.0671 15.7486C27.0671 19.2433 25.3276 22.3412 22.6879 24.2487L22.749 23.8668C22.8559 23.0429 22.749 22.2801 22.4741 21.6085C23.9692 20.1435 24.9009 18.068 24.9009 15.7486C24.9009 11.0945 21.2531 7.3707 16.5225 7.3707C11.8073 7.3707 8.14499 11.0945 8.14499 15.7486C8.14499 18.0528 9.06059 20.1283 10.5709 21.6085C10.3112 22.2648 10.2052 23.0429 10.3112 23.8516L10.357 24.2335C7.71729 22.3413 5.99309 19.228 5.99309 15.7181C5.99309 9.904 10.7389 5.204 16.5225 5.204ZM16.5225 34C14.783 34 13.5314 32.9928 13.3023 31.1159L12.3867 23.6535C12.0821 21.3035 13.9896 19.8385 16.5224 19.8385C19.0705 19.8385 20.9636 21.3188 20.6734 23.6535L19.7578 31.1159C19.5288 32.9928 18.2772 34 16.5225 34ZM12.8755 14.4822C12.8755 12.4525 14.4928 10.8195 16.5224 10.8195C18.552 10.8195 20.1846 12.4525 20.1846 14.4822C20.1846 16.5119 18.5368 18.1291 16.5224 18.1291C14.4928 18.1292 12.8755 16.5119 12.8755 14.4822Z" fill="#F5F5F7"/>
</svg>
