<svg width="33" height="29" viewBox="0 0 33 29" fill="none" xmlns="http://www.w3.org/2000/svg">
<path d="M3.13011 28C2.73011 28.3 2.33011 28.5 1.73011 28.5C1.03011 28.5 0.430115 28.1 0.430115 27.1V4.2C1.13011 2.7 4.43011 0.5 8.33011 0.5C11.4301 0.5 14.4301 2 15.4301 3.9V28.3C15.2301 28.3 14.4301 27.8 14.2301 27.7C13.4301 27.2 11.7301 26.2 9.13011 26.2C6.23011 26.2 4.03011 27.2 3.13011 28ZM18.7301 27.7C18.4301 27.9 17.6301 28.4 17.4301 28.4V3.9C18.4301 2 21.4301 0.5 24.5301 0.5C28.4301 0.5 31.7301 2.7 32.4301 4.2V27C32.4301 28 31.8301 28.4 31.1301 28.4C30.5301 28.4 30.1301 28.2 29.8301 27.9C28.9301 27.1 26.7301 26.1 23.8301 26.1C21.1301 26.2 19.4301 27.1 18.7301 27.7Z" fill="#F5F5F7"/>
</svg>
