<svg width="38" height="34" viewBox="0 0 38 34" fill="none" xmlns="http://www.w3.org/2000/svg">
<path d="M16.4588 33.6815C15.6203 33.4694 14.8386 33.1979 14.1146 32.867L3.35922 28.0242C2.51012 27.6418 1.87922 27.2611 1.46492 26.8836C1.05142 26.5061 0.844719 25.9861 0.844719 25.3238V24.1442C0.844719 23.8856 0.950319 23.7201 1.16232 23.6473C1.37442 23.575 1.55272 23.5697 1.69822 23.6318L13.2771 28.8778C14.4252 29.4057 15.4624 29.7602 16.3888 29.9412C17.3142 30.1222 18.3 30.2127 19.3452 30.2127C20.3593 30.2127 21.3815 30.104 22.4107 29.8866C23.4399 29.6697 24.4417 29.3436 25.4141 28.9088L36.977 23.6628C37.1216 23.6007 37.2982 23.6007 37.5049 23.6628C37.7116 23.7249 37.8154 23.8855 37.8154 24.1441V25.3237C37.8154 25.986 37.6078 26.506 37.1943 26.8835C36.7808 27.261 36.1544 27.6417 35.316 28.0241L24.5445 32.867C23.8205 33.198 23.0397 33.4695 22.2012 33.6815C21.3628 33.8935 20.4054 34 19.33 34C18.2538 34 17.2964 33.8935 16.4588 33.6815ZM16.7064 27.8148C15.8271 27.6338 14.9629 27.3516 14.1147 26.9688L2.47372 21.6607C1.93602 21.4123 1.53762 21.1226 1.27852 20.7916C1.02032 20.4606 0.890819 20.1084 0.890819 19.7362C0.890819 19.3742 1.02032 19.0246 1.27852 18.6883C1.53762 18.3525 1.94662 18.0597 2.50472 17.8112L14.1146 12.5031C14.7046 12.2343 15.3231 12.012 15.9699 11.8359C16.6158 11.6602 17.2592 11.536 17.9734 11.4632V20.0928C17.9734 20.3208 18.095 20.5227 18.3381 20.6984C18.5812 20.8745 18.9262 20.9624 19.3299 20.9624C19.7443 20.9624 20.0787 20.8746 20.3218 20.6984C20.5649 20.5227 20.6864 20.3209 20.6864 20.0928V11.4632C21.3696 11.536 22.0351 11.6549 22.6669 11.8203C23.2977 11.9858 23.9392 12.2138 24.5914 12.5031L35.5181 17.4856C36.0043 17.703 36.5083 17.9976 37.0309 18.3702C37.5535 18.7429 37.8152 19.198 37.8152 19.7361C37.8152 20.2844 37.5561 20.7423 37.0388 21.1096C36.5215 21.4769 36.0247 21.7693 35.5491 21.9867L24.5913 26.9687C23.7324 27.3516 22.8629 27.6337 21.9836 27.8147C21.1043 27.9957 20.2241 28.0862 19.3449 28.0862C18.4657 28.0862 17.5865 27.9958 16.7064 27.8148ZM9.81582 20.8303C10.2914 20.5357 10.5292 20.1759 10.5292 19.7518C10.5292 19.3379 10.2914 18.9834 9.81582 18.6884C9.33932 18.3934 8.75992 18.2461 8.07682 18.2461C7.39452 18.2461 6.81242 18.3934 6.33072 18.6884C5.84982 18.9834 5.60942 19.3379 5.60942 19.7518C5.60942 20.1759 5.84982 20.5357 6.33072 20.8303C6.81252 21.1253 7.39452 21.2726 8.07682 21.2726C8.76002 21.2726 9.33942 21.1253 9.81582 20.8303ZM21.8827 9.5078C22.6431 9.0526 23.2509 8.4422 23.7069 7.6765C24.1621 6.9108 24.3892 6.0621 24.3892 5.1309C24.3892 4.1997 24.1621 3.3537 23.7069 2.5933C23.2508 1.8329 22.6431 1.2251 21.8827 0.769501C21.1223 0.314301 20.2767 0.0867004 19.3451 0.0867004C18.4144 0.0867004 17.5652 0.314301 16.7995 0.769501C16.0338 1.2251 15.4207 1.8329 14.9602 2.5933C14.4997 3.3537 14.2699 4.1997 14.2699 5.1309C14.2699 6.0621 14.4997 6.9108 14.9602 7.6765C15.4207 8.4422 16.0338 9.0527 16.7995 9.5078C17.5652 9.9634 18.4143 10.1906 19.3451 10.1906C20.2767 10.1906 21.1223 9.9634 21.8827 9.5078Z" fill="#F5F5F7"/>
</svg>
